<svg xmlns="http://www.w3.org/2000/svg" width="18" height="18" viewBox="0 0 18 18">
    <path fill="#8E99A8" fill-rule="nonzero" d="M16.512 0H1.507C.608 0 0 .615 0 1.515V16.5c0 .9.608 1.5 1.507 1.5h15.005c.9 0 1.488-.6 1.488-1.5V1.515C18 .615 17.412 0 16.512 0zM5.57 15.542a.474.474 0 0 1-.474.474H3.08a.474.474 0 0 1-.474-.474V7.087c0-.262.212-.474.474-.474h2.017c.262 0 .474.212.474.474v8.455zM4.088 5.816a1.916 1.916 0 1 1 0-3.832 1.916 1.916 0 0 1 0 3.832zm12.023 9.765c0 .24-.195.435-.436.435h-2.164a.436.436 0 0 1-.436-.435v-3.966c0-.592.174-2.593-1.546-2.593-1.334 0-1.604 1.37-1.659 1.984v4.575c0 .24-.195.435-.436.435H7.341a.436.436 0 0 1-.436-.435V7.049c0-.24.196-.436.436-.436h2.093c.241 0 .436.195.436.436v.738c.495-.743 1.23-1.316 2.795-1.316 3.466 0 3.446 3.238 3.446 5.017v4.093z"/>
</svg>
